STARTFONT 2.1
FONT -Monotype-Nimrod-Regular-I-Normal--12-120-75-75-P-76-iso8859-5
SIZE 12 75 75
FONTBOUNDINGBOX 17 16 -2 -3

STARTPROPERTIES 24
FOUNDRY "Monotype"
FAMILY_NAME "Nimrod"
WEIGHT_NAME "Regular"
SLANT "I"
SETWIDTH_NAME "Normal"
ADD_STYLE_NAME ""
PIXEL_SIZE 12
POINT_SIZE 120
RESOLUTION_X 75
RESOLUTION_Y 75
SPACING "P"
AVERAGE_WIDTH 76
CHARSET_REGISTRY "iso8859"
CHARSET_ENCODING "5"
FACE_NAME "Nimrod Inclined ISO Latin Cyrillic"
_DEC_DEVICE_FONTNAMES "PS=nimrod-in-latcyrillic"
COPYRIGHT "Copyright (c) 1994 Monotype Typography Ltd."
CAP_HEIGHT 11
X_HEIGHT 8
WEIGHT 10
QUAD_WIDTH 9
DEFAULT_CHAR 160
FONT_DESCENT 3
FONT_ASCENT 13
ENDPROPERTIES

CHARS 191

STARTCHAR space
ENCODING 32
SWIDTH 250 0
DWIDTH 3 0
BBX 0 0 0 0
BITMAP
ENDCHAR

STARTCHAR exclam
ENCODING 33
SWIDTH 354 0
DWIDTH 5 0
BBX 4 10 1 0
BITMAP
10
10
20
20
20
40
40
00
80
80
ENDCHAR

STARTCHAR quotedbl
ENCODING 34
SWIDTH 417 0
DWIDTH 5 0
BBX 4 4 1 6
BITMAP
50
50
A0
A0
ENDCHAR

STARTCHAR numbersign
ENCODING 35
SWIDTH 667 0
DWIDTH 9 0
BBX 8 10 1 0
BITMAP
12
12
12
7F
24
24
FE
48
48
48
ENDCHAR

STARTCHAR dollar
ENCODING 36
SWIDTH 500 0
DWIDTH 7 0
BBX 6 12 1 -2
BITMAP
10
38
54
54
30
30
10
A8
A8
70
20
20
ENDCHAR

STARTCHAR percent
ENCODING 37
SWIDTH 1000 0
DWIDTH 11 0
BBX 9 10 1 0
BITMAP
2100
5200
9200
A400
4800
0900
1280
2480
2500
4200
ENDCHAR

STARTCHAR ampersand
ENCODING 38
SWIDTH 854 0
DWIDTH 11 0
BBX 10 10 1 0
BITMAP
0C00
1200
1200
1C00
29C0
4880
8500
8600
8480
7B00
ENDCHAR

STARTCHAR quoteright
ENCODING 39
SWIDTH 281 0
DWIDTH 4 0
BBX 3 3 1 7
BITMAP
20
20
C0
ENDCHAR

STARTCHAR parenleft
ENCODING 40
SWIDTH 354 0
DWIDTH 5 0
BBX 5 12 1 -2
BITMAP
08
10
20
40
40
80
80
80
80
80
40
40
ENDCHAR

STARTCHAR parenright
ENCODING 41
SWIDTH 354 0
DWIDTH 5 0
BBX 5 12 -1 -2
BITMAP
10
10
08
08
08
08
08
10
10
20
40
80
ENDCHAR

STARTCHAR asterisk
ENCODING 42
SWIDTH 469 0
DWIDTH 6 0
BBX 4 5 1 5
BITMAP
20
20
F0
40
A0
ENDCHAR

STARTCHAR plus
ENCODING 43
SWIDTH 667 0
DWIDTH 9 0
BBX 7 7 1 1
BITMAP
10
10
10
FE
10
10
10
ENDCHAR

STARTCHAR comma
ENCODING 44
SWIDTH 281 0
DWIDTH 4 0
BBX 3 3 0 -2
BITMAP
20
20
C0
ENDCHAR

STARTCHAR minus
ENCODING 45
SWIDTH 667 0
DWIDTH 9 0
BBX 7 1 1 4
BITMAP
FE
ENDCHAR

STARTCHAR period
ENCODING 46
SWIDTH 281 0
DWIDTH 4 0
BBX 1 2 2 0
BITMAP
80
80
ENDCHAR

STARTCHAR slash
ENCODING 47
SWIDTH 510 0
DWIDTH 7 0
BBX 6 10 1 0
BITMAP
04
08
08
10
10
20
20
40
40
80
ENDCHAR

STARTCHAR zero
ENCODING 48
SWIDTH 500 0
DWIDTH 7 0
BBX 6 10 1 0
BITMAP
38
44
44
44
84
84
88
88
88
70
ENDCHAR

STARTCHAR one
ENCODING 49
SWIDTH 500 0
DWIDTH 7 0
BBX 4 10 2 0
BITMAP
10
70
20
20
20
20
40
40
40
E0
ENDCHAR

STARTCHAR two
ENCODING 50
SWIDTH 500 0
DWIDTH 7 0
BBX 7 10 0 0
BITMAP
1C
22
22
02
04
08
10
20
44
F8
ENDCHAR

STARTCHAR three
ENCODING 51
SWIDTH 500 0
DWIDTH 7 0
BBX 7 10 0 0
BITMAP
1C
22
22
02
1C
08
04
84
84
78
ENDCHAR

STARTCHAR four
ENCODING 52
SWIDTH 500 0
DWIDTH 7 0
BBX 6 10 1 0
BITMAP
04
0C
14
24
48
88
FC
10
10
38
ENDCHAR

STARTCHAR five
ENCODING 53
SWIDTH 500 0
DWIDTH 7 0
BBX 7 10 0 0
BITMAP
3E
20
20
38
64
04
04
84
88
70
ENDCHAR

STARTCHAR six
ENCODING 54
SWIDTH 500 0
DWIDTH 7 0
BBX 7 10 1 0
BITMAP
0C
32
40
40
B8
C4
84
84
88
70
ENDCHAR

STARTCHAR seven
ENCODING 55
SWIDTH 500 0
DWIDTH 7 0
BBX 6 10 1 0
BITMAP
FC
84
88
08
10
10
20
20
40
40
ENDCHAR

STARTCHAR eight
ENCODING 56
SWIDTH 500 0
DWIDTH 7 0
BBX 6 10 1 0
BITMAP
38
44
44
48
30
48
88
88
88
70
ENDCHAR

STARTCHAR nine
ENCODING 57
SWIDTH 500 0
DWIDTH 7 0
BBX 7 10 0 0
BITMAP
1C
22
42
42
46
3A
04
04
98
60
ENDCHAR

STARTCHAR colon
ENCODING 58
SWIDTH 281 0
DWIDTH 4 0
BBX 2 7 1 0
BITMAP
40
40
00
00
00
80
80
ENDCHAR

STARTCHAR semicolon
ENCODING 59
SWIDTH 281 0
DWIDTH 4 0
BBX 4 9 0 -2
BITMAP
10
10
00
00
00
00
20
20
C0
ENDCHAR

STARTCHAR less
ENCODING 60
SWIDTH 667 0
DWIDTH 9 0
BBX 7 7 1 1
BITMAP
02
0C
30
C0
30
0C
02
ENDCHAR

STARTCHAR equal
ENCODING 61
SWIDTH 667 0
DWIDTH 9 0
BBX 7 3 1 3
BITMAP
FE
00
FE
ENDCHAR

STARTCHAR greater
ENCODING 62
SWIDTH 667 0
DWIDTH 9 0
BBX 7 7 1 1
BITMAP
80
60
18
06
18
60
80
ENDCHAR

STARTCHAR question
ENCODING 63
SWIDTH 427 0
DWIDTH 6 0
BBX 5 10 1 0
BITMAP
70
88
88
08
10
20
40
00
80
80
ENDCHAR

STARTCHAR at
ENCODING 64
SWIDTH 917 0
DWIDTH 12 0
BBX 11 12 1 -2
BITMAP
0F00
30C0
4040
4520
8B20
9140
9240
9680
4B20
4040
3180
0E00
ENDCHAR

STARTCHAR A
ENCODING 65
SWIDTH 771 0
DWIDTH 10 0
BBX 10 10 -1 0
BITMAP
0100
0300
0500
0500
0880
1080
1F80
2080
4080
E1C0
ENDCHAR

STARTCHAR B
ENCODING 66
SWIDTH 740 0
DWIDTH 10 0
BBX 10 10 0 0
BITMAP
3F80
1040
1040
2080
3F00
2080
2080
4080
4100
FE00
ENDCHAR

STARTCHAR C
ENCODING 67
SWIDTH 708 0
DWIDTH 9 0
BBX 9 10 0 0
BITMAP
0F80
3080
4080
4000
8000
8000
8000
8100
4200
3C00
ENDCHAR

STARTCHAR D
ENCODING 68
SWIDTH 792 0
DWIDTH 10 0
BBX 10 10 0 0
BITMAP
3E00
1180
1040
1040
2040
2040
2080
4080
4300
FC00
ENDCHAR

STARTCHAR E
ENCODING 69
SWIDTH 708 0
DWIDTH 9 0
BBX 9 10 0 0
BITMAP
3F80
1080
1080
2200
3C00
2400
2000
4100
4200
FE00
ENDCHAR

STARTCHAR F
ENCODING 70
SWIDTH 698 0
DWIDTH 9 0
BBX 9 10 0 0
BITMAP
3F80
1080
1080
2200
3C00
2400
2000
4000
4000
E000
ENDCHAR

STARTCHAR G
ENCODING 71
SWIDTH 802 0
DWIDTH 10 0
BBX 10 10 0 0
BITMAP
0F80
3080
4080
4000
8000
81C0
8080
8080
4100
3E00
ENDCHAR

STARTCHAR H
ENCODING 72
SWIDTH 812 0
DWIDTH 11 0
BBX 11 10 0 0
BITMAP
38E0
1040
1040
2080
3F80
2080
2080
4100
4100
E380
ENDCHAR

STARTCHAR I
ENCODING 73
SWIDTH 417 0
DWIDTH 5 0
BBX 5 10 0 0
BITMAP
38
10
10
20
20
20
20
40
40
E0
ENDCHAR

STARTCHAR J
ENCODING 74
SWIDTH 604 0
DWIDTH 8 0
BBX 8 10 0 0
BITMAP
07
02
02
04
04
04
44
C8
88
70
ENDCHAR

STARTCHAR K
ENCODING 75
SWIDTH 760 0
DWIDTH 10 0
BBX 10 10 0 0
BITMAP
39C0
1080
1100
2200
2C00
3400
2200
4200
4100
E380
ENDCHAR

STARTCHAR L
ENCODING 76
SWIDTH 667 0
DWIDTH 8 0
BBX 8 10 0 0
BITMAP
38
10
10
20
20
20
20
41
42
FE
ENDCHAR

STARTCHAR M
ENCODING 77
SWIDTH 979 0
DWIDTH 13 0
BBX 13 10 0 0
BITMAP
3018
1830
3850
2850
28A0
2520
4520
4640
4440
E4E0
ENDCHAR

STARTCHAR N
ENCODING 78
SWIDTH 823 0
DWIDTH 11 0
BBX 11 10 0 0
BITMAP
30E0
1840
1840
2440
2480
2480
2280
4280
4100
E100
ENDCHAR

STARTCHAR O
ENCODING 79
SWIDTH 792 0
DWIDTH 10 0
BBX 10 10 0 0
BITMAP
0F00
3080
4040
4040
8040
8040
8080
8080
4300
3C00
ENDCHAR

STARTCHAR P
ENCODING 80
SWIDTH 698 0
DWIDTH 9 0
BBX 10 10 0 0
BITMAP
3F00
1080
1040
2040
2080
3F00
2000
4000
4000
E000
ENDCHAR

STARTCHAR Q
ENCODING 81
SWIDTH 792 0
DWIDTH 10 0
BBX 10 11 0 -1
BITMAP
0F00
3080
4040
4040
8040
9840
A480
C480
4300
3E00
01C0
ENDCHAR

STARTCHAR R
ENCODING 82
SWIDTH 760 0
DWIDTH 10 0
BBX 10 10 0 0
BITMAP
3F80
1040
1040
2080
3F00
2200
2200
4100
4100
E180
ENDCHAR

STARTCHAR S
ENCODING 83
SWIDTH 646 0
DWIDTH 8 0
BBX 7 10 1 0
BITMAP
3E
42
42
20
10
08
04
84
84
F8
ENDCHAR

STARTCHAR T
ENCODING 84
SWIDTH 750 0
DWIDTH 10 0
BBX 10 10 0 0
BITMAP
7FC0
4440
8480
0800
0800
0800
0800
1000
1000
3800
ENDCHAR

STARTCHAR U
ENCODING 85
SWIDTH 760 0
DWIDTH 10 0
BBX 10 10 1 0
BITMAP
71C0
2080
2080
4100
4100
4100
8200
8200
8200
7C00
ENDCHAR

STARTCHAR V
ENCODING 86
SWIDTH 740 0
DWIDTH 10 0
BBX 10 10 1 0
BITMAP
E1C0
4080
4100
4200
4200
2400
2800
3000
2000
2000
ENDCHAR

STARTCHAR W
ENCODING 87
SWIDTH 979 0
DWIDTH 13 0
BBX 13 10 1 0
BITMAP
E738
4210
4220
4620
4640
2A80
2A80
3300
2200
2200
ENDCHAR

STARTCHAR X
ENCODING 88
SWIDTH 750 0
DWIDTH 10 0
BBX 9 10 0 0
BITMAP
7380
2100
1200
1400
0800
0800
1400
2400
4200
E700
ENDCHAR

STARTCHAR Y
ENCODING 89
SWIDTH 708 0
DWIDTH 9 0
BBX 9 10 1 0
BITMAP
E380
4100
4200
2400
2800
1000
1000
2000
2000
7000
ENDCHAR

STARTCHAR Z
ENCODING 90
SWIDTH 687 0
DWIDTH 9 0
BBX 9 10 0 0
BITMAP
3F80
2100
4200
0400
0800
0800
1000
2100
4200
FE00
ENDCHAR

STARTCHAR bracketleft
ENCODING 91
SWIDTH 344 0
DWIDTH 4 0
BBX 5 12 0 -2
BITMAP
38
20
20
20
40
40
40
40
80
80
80
E0
ENDCHAR

STARTCHAR backslash
ENCODING 92
SWIDTH 510 0
DWIDTH 7 0
BBX 5 10 1 0
BITMAP
80
80
40
40
20
20
10
10
08
08
ENDCHAR

STARTCHAR bracketright
ENCODING 93
SWIDTH 344 0
DWIDTH 4 0
BBX 5 12 0 -2
BITMAP
38
08
08
08
10
10
10
10
20
20
20
E0
ENDCHAR

STARTCHAR asciicircum
ENCODING 94
SWIDTH 427 0
DWIDTH 6 0
BBX 5 5 1 5
BITMAP
20
50
50
88
88
ENDCHAR

STARTCHAR underscore
ENCODING 95
SWIDTH 500 0
DWIDTH 7 0
BBX 7 1 0 -3
BITMAP
FE
ENDCHAR

STARTCHAR quoteleft
ENCODING 96
SWIDTH 281 0
DWIDTH 4 0
BBX 3 3 1 7
BITMAP
60
80
80
ENDCHAR

STARTCHAR a
ENCODING 97
SWIDTH 604 0
DWIDTH 8 0
BBX 7 7 1 0
BITMAP
34
4C
84
84
88
9A
6C
ENDCHAR

STARTCHAR b
ENCODING 98
SWIDTH 604 0
DWIDTH 8 0
BBX 7 10 1 0
BITMAP
60
20
20
5C
62
42
42
82
C4
B8
ENDCHAR

STARTCHAR c
ENCODING 99
SWIDTH 448 0
DWIDTH 6 0
BBX 6 7 1 0
BITMAP
3C
44
40
80
80
88
70
ENDCHAR

STARTCHAR d
ENCODING 100
SWIDTH 604 0
DWIDTH 8 0
BBX 7 10 1 0
BITMAP
06
02
02
34
4C
84
84
88
9A
6C
ENDCHAR

STARTCHAR e
ENCODING 101
SWIDTH 448 0
DWIDTH 6 0
BBX 6 7 1 0
BITMAP
38
44
84
F8
80
88
70
ENDCHAR

STARTCHAR f
ENCODING 102
SWIDTH 344 0
DWIDTH 4 0
BBX 9 12 -2 -2
BITMAP
0300
0480
0400
1E00
0800
0800
0800
1000
1000
1000
2000
C000
ENDCHAR

STARTCHAR g
ENCODING 103
SWIDTH 583 0
DWIDTH 7 0
BBX 8 9 0 -2
BITMAP
1F
22
22
3C
40
78
84
84
78
ENDCHAR

STARTCHAR h
ENCODING 104
SWIDTH 635 0
DWIDTH 8 0
BBX 7 10 1 0
BITMAP
60
20
20
58
64
44
44
88
8A
8C
ENDCHAR

STARTCHAR i
ENCODING 105
SWIDTH 344 0
DWIDTH 4 0
BBX 3 10 1 0
BITMAP
20
20
00
C0
40
40
40
80
A0
C0
ENDCHAR

STARTCHAR j
ENCODING 106
SWIDTH 344 0
DWIDTH 4 0
BBX 6 12 -1 -2
BITMAP
04
04
00
18
08
08
08
10
10
10
A0
C0
ENDCHAR

STARTCHAR k
ENCODING 107
SWIDTH 594 0
DWIDTH 8 0
BBX 7 10 1 0
BITMAP
60
20
20
4C
52
60
60
90
94
98
ENDCHAR

STARTCHAR l
ENCODING 108
SWIDTH 344 0
DWIDTH 4 0
BBX 3 10 1 0
BITMAP
60
20
20
40
40
40
40
80
A0
C0
ENDCHAR

STARTCHAR m
ENCODING 109
SWIDTH 906 0
DWIDTH 12 0
BBX 11 7 1 0
BITMAP
D980
6640
4440
4440
8880
88A0
88C0
ENDCHAR

STARTCHAR n
ENCODING 110
SWIDTH 635 0
DWIDTH 8 0
BBX 7 7 1 0
BITMAP
D8
64
44
44
88
8A
8C
ENDCHAR

STARTCHAR o
ENCODING 111
SWIDTH 531 0
DWIDTH 7 0
BBX 6 7 1 0
BITMAP
38
44
44
84
88
88
70
ENDCHAR

STARTCHAR p
ENCODING 112
SWIDTH 594 0
DWIDTH 8 0
BBX 8 9 0 -2
BITMAP
36
19
11
21
21
32
4C
40
E0
ENDCHAR

STARTCHAR q
ENCODING 113
SWIDTH 573 0
DWIDTH 7 0
BBX 6 9 1 -2
BITMAP
34
4C
84
84
88
98
68
10
38
ENDCHAR

STARTCHAR r
ENCODING 114
SWIDTH 490 0
DWIDTH 6 0
BBX 5 7 1 0
BITMAP
D8
68
40
40
80
80
80
ENDCHAR

STARTCHAR s
ENCODING 115
SWIDTH 448 0
DWIDTH 6 0
BBX 6 7 0 0
BITMAP
3C
44
40
30
08
88
F0
ENDCHAR

STARTCHAR t
ENCODING 116
SWIDTH 354 0
DWIDTH 5 0
BBX 4 9 1 0
BITMAP
20
20
F0
40
40
40
80
A0
C0
ENDCHAR

STARTCHAR u
ENCODING 117
SWIDTH 635 0
DWIDTH 8 0
BBX 7 7 1 0
BITMAP
C4
44
44
88
88
9A
6C
ENDCHAR

STARTCHAR v
ENCODING 118
SWIDTH 542 0
DWIDTH 7 0
BBX 6 7 1 0
BITMAP
C8
44
44
84
88
88
70
ENDCHAR

STARTCHAR w
ENCODING 119
SWIDTH 812 0
DWIDTH 11 0
BBX 10 7 1 0
BITMAP
C480
4440
4440
8840
8880
9880
6700
ENDCHAR

STARTCHAR x
ENCODING 120
SWIDTH 583 0
DWIDTH 8 0
BBX 8 7 0 0
BITMAP
23
54
18
10
18
2A
C4
ENDCHAR

STARTCHAR y
ENCODING 121
SWIDTH 521 0
DWIDTH 7 0
BBX 7 9 0 -2
BITMAP
44
A2
22
22
14
18
10
A0
40
ENDCHAR

STARTCHAR z
ENCODING 122
SWIDTH 510 0
DWIDTH 7 0
BBX 7 7 1 0
BITMAP
3E
44
08
10
20
44
F8
ENDCHAR

STARTCHAR braceleft
ENCODING 123
SWIDTH 479 0
DWIDTH 6 0
BBX 5 12 1 -2
BITMAP
08
10
20
20
20
40
80
40
40
80
80
40
ENDCHAR

STARTCHAR bar
ENCODING 124
SWIDTH 510 0
DWIDTH 7 0
BBX 1 10 3 0
BITMAP
80
80
80
80
80
80
80
80
80
80
ENDCHAR

STARTCHAR braceright
ENCODING 125
SWIDTH 479 0
DWIDTH 6 0
BBX 5 12 1 -2
BITMAP
10
08
08
10
10
08
10
20
20
20
40
80
ENDCHAR

STARTCHAR asciitilde
ENCODING 126
SWIDTH 667 0
DWIDTH 9 0
BBX 8 2 1 3
BITMAP
71
8E
ENDCHAR

STARTCHAR space
ENCODING 160
SWIDTH 250 0
DWIDTH 4 0
BBX 0 0 0 0
BITMAP
ENDCHAR

STARTCHAR afii10023
ENCODING 161
SWIDTH 708 0
DWIDTH 9 0
BBX 9 13 0 0
BITMAP
0900
0900
0000
3F80
1080
1080
2200
3C00
2400
2000
4100
4200
FE00
ENDCHAR

STARTCHAR afii10051
ENCODING 162
SWIDTH 842 0
DWIDTH 11 0
BBX 11 10 0 0
BITMAP
7FC0
4440
8480
0800
0BC0
0C20
0820
1020
1020
39C0
ENDCHAR

STARTCHAR afii10052
ENCODING 163
SWIDTH 676 0
DWIDTH 8 0
BBX 8 13 0 0
BITMAP
02
04
00
3F
11
11
20
20
20
20
40
40
E0
ENDCHAR

STARTCHAR afii10053
ENCODING 164
SWIDTH 708 0
DWIDTH 9 0
BBX 9 10 0 0
BITMAP
0F00
3180
4080
4000
F800
8000
8000
8100
4100
3E00
ENDCHAR

STARTCHAR afii10054
ENCODING 165
SWIDTH 646 0
DWIDTH 8 0
BBX 7 10 1 0
BITMAP
3E
42
42
20
10
08
04
84
84
F8
ENDCHAR

STARTCHAR afii10055
ENCODING 166
SWIDTH 406 0
DWIDTH 5 0
BBX 5 10 0 0
BITMAP
38
10
10
20
20
20
20
40
40
E0
ENDCHAR

STARTCHAR afii10056
ENCODING 167
SWIDTH 406 0
DWIDTH 5 0
BBX 6 13 0 0
BITMAP
24
24
00
38
10
10
20
20
20
20
40
40
E0
ENDCHAR

STARTCHAR afii10057
ENCODING 168
SWIDTH 615 0
DWIDTH 8 0
BBX 8 10 0 0
BITMAP
07
02
02
04
04
04
44
C8
88
70
ENDCHAR

STARTCHAR afii10058
ENCODING 169
SWIDTH 1096 0
DWIDTH 14 0
BBX 15 10 -1 0
BITMAP
0FE0
0440
0440
0880
08FC
0882
4882
D102
9104
63F8
ENDCHAR

STARTCHAR afii10059
ENCODING 170
SWIDTH 1061 0
DWIDTH 14 0
BBX 14 10 0 0
BITMAP
39C0
1080
1080
2100
3FF8
2104
2104
4204
4208
E7F0
ENDCHAR

STARTCHAR afii10060
ENCODING 171
SWIDTH 847 0
DWIDTH 11 0
BBX 11 10 0 0
BITMAP
7FC0
4440
8480
0800
0BC0
0C20
0820
1040
1040
38E0
ENDCHAR

STARTCHAR afii10061
ENCODING 172
SWIDTH 779 0
DWIDTH 10 0
BBX 10 13 0 0
BITMAP
0100
0200
0000
38C0
1140
1200
2200
3C00
2400
2200
4200
4100
E180
ENDCHAR

STARTCHAR hyphen
ENCODING 173
SWIDTH 281 0
DWIDTH 4 0
BBX 3 1 1 3
BITMAP
E0
ENDCHAR

STARTCHAR afii10062
ENCODING 174
SWIDTH 738 0
DWIDTH 10 0
BBX 10 13 1 0
BITMAP
0900
0600
0000
71C0
2080
2100
2200
1200
1400
1800
0800
D000
6000
ENDCHAR

STARTCHAR afii10145
ENCODING 175
SWIDTH 823 0
DWIDTH 11 0
BBX 11 12 0 -2
BITMAP
38E0
1040
1040
2080
2080
2080
2080
4100
4100
FF80
0800
0800
ENDCHAR

STARTCHAR afii10017
ENCODING 176
SWIDTH 753 0
DWIDTH 10 0
BBX 10 10 -1 0
BITMAP
0100
0300
0500
0500
0880
1080
1F80
2080
4080
E1C0
ENDCHAR

STARTCHAR afii10018
ENCODING 177
SWIDTH 767 0
DWIDTH 10 0
BBX 10 10 0 0
BITMAP
3FC0
1040
1040
2000
3F00
2080
2080
4080
4100
FE00
ENDCHAR

STARTCHAR afii10019
ENCODING 178
SWIDTH 766 0
DWIDTH 10 0
BBX 10 10 0 0
BITMAP
3F80
1040
1040
2080
3F00
2080
2080
4080
4100
FE00
ENDCHAR

STARTCHAR afii10020
ENCODING 179
SWIDTH 676 0
DWIDTH 8 0
BBX 8 10 0 0
BITMAP
3F
11
11
20
20
20
20
40
40
E0
ENDCHAR

STARTCHAR afii10021
ENCODING 180
SWIDTH 803 0
DWIDTH 10 0
BBX 10 12 0 -2
BITMAP
3FC0
1080
1080
1080
2100
2100
2100
4200
4200
FF00
8100
8100
ENDCHAR

STARTCHAR afii10022
ENCODING 181
SWIDTH 708 0
DWIDTH 9 0
BBX 9 10 0 0
BITMAP
3F80
1080
1080
2200
3C00
2400
2000
4100
4200
FE00
ENDCHAR

STARTCHAR afii10024
ENCODING 182
SWIDTH 1175 0
DWIDTH 15 0
BBX 15 10 0 0
BITMAP
61C6
508A
1090
0920
0FE0
0920
1110
2210
4208
C70C
ENDCHAR

STARTCHAR afii10025
ENCODING 183
SWIDTH 632 0
DWIDTH 8 0
BBX 8 10 0 0
BITMAP
7E
41
41
02
1C
02
02
82
84
78
ENDCHAR

STARTCHAR afii10026
ENCODING 184
SWIDTH 823 0
DWIDTH 11 0
BBX 11 10 0 0
BITMAP
38E0
10C0
1140
2280
2480
2880
3080
6100
4100
E380
ENDCHAR

STARTCHAR afii10027
ENCODING 185
SWIDTH 823 0
DWIDTH 11 0
BBX 11 13 0 0
BITMAP
0480
0300
0000
38E0
10C0
1140
2280
2480
2880
3080
6100
4100
E380
ENDCHAR

STARTCHAR afii10028
ENCODING 186
SWIDTH 779 0
DWIDTH 10 0
BBX 10 10 0 0
BITMAP
38C0
1140
1200
2200
3C00
2400
2200
4200
4100
E180
ENDCHAR

STARTCHAR afii10029
ENCODING 187
SWIDTH 830 0
DWIDTH 11 0
BBX 12 10 -1 0
BITMAP
07F0
0220
0220
0440
0440
0440
4840
C880
9080
61C0
ENDCHAR

STARTCHAR afii10030
ENCODING 188
SWIDTH 979 0
DWIDTH 13 0
BBX 13 10 0 0
BITMAP
3018
1830
3850
2850
28A0
2520
4520
4640
4440
E4E0
ENDCHAR

STARTCHAR afii10031
ENCODING 189
SWIDTH 812 0
DWIDTH 11 0
BBX 11 10 0 0
BITMAP
38E0
1040
1040
2080
3F80
2080
2080
4100
4100
E380
ENDCHAR

STARTCHAR afii10032
ENCODING 190
SWIDTH 787 0
DWIDTH 10 0
BBX 10 10 0 0
BITMAP
0F00
3080
4040
4040
8040
8040
8080
8080
4300
3C00
ENDCHAR

STARTCHAR afii10033
ENCODING 191
SWIDTH 823 0
DWIDTH 11 0
BBX 11 10 0 0
BITMAP
3FE0
1040
1040
2080
2080
2080
2080
4100
4100
E380
ENDCHAR

STARTCHAR afii10034
ENCODING 192
SWIDTH 704 0
DWIDTH 9 0
BBX 10 10 0 0
BITMAP
3F00
1080
1040
2040
2080
3F00
2000
4000
4000
E000
ENDCHAR

STARTCHAR afii10035
ENCODING 193
SWIDTH 708 0
DWIDTH 9 0
BBX 9 10 0 0
BITMAP
0F80
3080
4080
4000
8000
8000
8000
8100
4200
3C00
ENDCHAR

STARTCHAR afii10036
ENCODING 194
SWIDTH 708 0
DWIDTH 10 0
BBX 10 10 0 0
BITMAP
7FC0
4440
8480
0800
0800
0800
0800
1000
1000
3800
ENDCHAR

STARTCHAR afii10037
ENCODING 195
SWIDTH 738 0
DWIDTH 10 0
BBX 10 10 1 0
BITMAP
71C0
2080
2100
2200
1200
1400
1800
0800
D000
6000
ENDCHAR

STARTCHAR afii10038
ENCODING 196
SWIDTH 874 0
DWIDTH 10 0
BBX 10 10 0 0
BITMAP
0E00
0400
3F80
4440
4C40
8880
8880
7F00
0800
1C00
ENDCHAR

STARTCHAR afii10039
ENCODING 197
SWIDTH 760 0
DWIDTH 10 0
BBX 9 10 0 0
BITMAP
7380
2100
1200
1400
0800
0800
1400
2400
4200
E700
ENDCHAR

STARTCHAR afii10040
ENCODING 198
SWIDTH 823 0
DWIDTH 11 0
BBX 11 12 0 -2
BITMAP
38E0
1040
1040
2080
2080
2080
2080
4100
4100
FF80
0080
0080
ENDCHAR

STARTCHAR afii10041
ENCODING 199
SWIDTH 779 0
DWIDTH 9 0
BBX 8 10 1 0
BITMAP
E7
42
42
84
8C
74
04
08
08
1C
ENDCHAR

STARTCHAR afii10042
ENCODING 200
SWIDTH 1141 0
DWIDTH 15 0
BBX 15 10 0 0
BITMAP
39CE
1084
1084
2108
2108
2108
2108
4210
4210
FFF8
ENDCHAR

STARTCHAR afii10043
ENCODING 201
SWIDTH 1132 0
DWIDTH 15 0
BBX 15 12 0 -2
BITMAP
39CE
1084
1084
2108
2108
2108
2108
4210
4210
FFF8
0008
0008
ENDCHAR

STARTCHAR afii10044
ENCODING 202
SWIDTH 881 0
DWIDTH 10 0
BBX 10 10 0 0
BITMAP
FC00
8800
8800
1000
1F80
1040
1040
2040
2080
7F00
ENDCHAR

STARTCHAR afii10045
ENCODING 203
SWIDTH 1083 0
DWIDTH 14 0
BBX 14 10 0 0
BITMAP
381C
1008
1008
2010
3F10
2090
2090
40A0
4120
FE70
ENDCHAR

STARTCHAR afii10046
ENCODING 204
SWIDTH 739 0
DWIDTH 9 0
BBX 9 10 0 0
BITMAP
3800
1000
1000
2000
3F00
2080
2080
4080
4100
FE00
ENDCHAR

STARTCHAR afii10047
ENCODING 205
SWIDTH 703 0
DWIDTH 9 0
BBX 9 10 0 0
BITMAP
1E00
3100
2080
0080
0F80
0080
0100
8100
8600
7800
ENDCHAR

STARTCHAR afii10048
ENCODING 206
SWIDTH 1133 0
DWIDTH 15 0
BBX 15 10 0 0
BITMAP
3878
1184
1202
2202
3E02
2402
2404
4404
4218
E1E0
ENDCHAR

STARTCHAR afii10049
ENCODING 207
SWIDTH 746 0
DWIDTH 10 0
BBX 11 10 0 0
BITMAP
0FE0
1040
2040
2080
1080
0F80
1080
2100
4100
C380
ENDCHAR

STARTCHAR afii10065
ENCODING 208
SWIDTH 604 0
DWIDTH 8 0
BBX 7 7 1 0
BITMAP
34
4C
84
84
88
9A
6C
ENDCHAR

STARTCHAR afii10066
ENCODING 209
SWIDTH 551 0
DWIDTH 7 0
BBX 7 10 1 0
BITMAP
02
1C
20
78
44
44
84
88
90
E0
ENDCHAR

STARTCHAR afii10067
ENCODING 210
SWIDTH 488 0
DWIDTH 7 0
BBX 6 7 1 0
BITMAP
18
24
44
F8
90
88
70
ENDCHAR

STARTCHAR afii10068
ENCODING 211
SWIDTH 439 0
DWIDTH 6 0
BBX 5 7 1 0
BITMAP
30
48
08
70
80
90
60
ENDCHAR

STARTCHAR afii10069
ENCODING 212
SWIDTH 542 0
DWIDTH 7 0
BBX 6 10 1 0
BITMAP
20
18
04
1C
24
44
84
88
90
60
ENDCHAR

STARTCHAR afii10070
ENCODING 213
SWIDTH 458 0
DWIDTH 6 0
BBX 6 7 1 0
BITMAP
38
44
84
F8
80
88
70
ENDCHAR

STARTCHAR afii10072
ENCODING 214
SWIDTH 975 0
DWIDTH 13 0
BBX 13 7 0 0
BITMAP
3130
4948
0A40
0F80
1280
9490
6460
ENDCHAR

STARTCHAR afii10073
ENCODING 215
SWIDTH 490 0
DWIDTH 6 0
BBX 6 7 0 0
BITMAP
38
44
04
38
88
88
70
ENDCHAR

STARTCHAR afii10074
ENCODING 216
SWIDTH 629 0
DWIDTH 8 0
BBX 7 7 1 0
BITMAP
C4
44
44
88
88
9A
6C
ENDCHAR

STARTCHAR afii10075
ENCODING 217
SWIDTH 635 0
DWIDTH 8 0
BBX 7 10 1 0
BITMAP
24
18
00
C4
44
44
88
88
9A
6C
ENDCHAR

STARTCHAR afii10076
ENCODING 218
SWIDTH 594 0
DWIDTH 8 0
BBX 7 7 1 0
BITMAP
C6
4A
50
70
90
88
8C
ENDCHAR

STARTCHAR afii10077
ENCODING 219
SWIDTH 646 0
DWIDTH 8 0
BBX 8 7 0 0
BITMAP
0E
12
12
22
24
A5
C6
ENDCHAR

STARTCHAR afii10078
ENCODING 220
SWIDTH 854 0
DWIDTH 11 0
BBX 11 7 0 0
BITMAP
3860
18C0
1940
2A40
2A80
ACA0
C8C0
ENDCHAR

STARTCHAR afii10079
ENCODING 221
SWIDTH 644 0
DWIDTH 8 0
BBX 7 7 1 0
BITMAP
C4
44
44
7C
88
8A
8C
ENDCHAR

STARTCHAR afii10080
ENCODING 222
SWIDTH 531 0
DWIDTH 7 0
BBX 6 7 1 0
BITMAP
38
44
44
84
88
88
70
ENDCHAR

STARTCHAR afii10081
ENCODING 223
SWIDTH 635 0
DWIDTH 8 0
BBX 7 7 1 0
BITMAP
D8
64
44
44
88
8A
8C
ENDCHAR

STARTCHAR afii10082
ENCODING 224
SWIDTH 583 0
DWIDTH 8 0
BBX 8 9 0 -2
BITMAP
36
19
11
21
21
32
4C
40
E0
ENDCHAR

STARTCHAR afii10083
ENCODING 225
SWIDTH 458 0
DWIDTH 6 0
BBX 6 7 1 0
BITMAP
3C
44
40
80
80
88
70
ENDCHAR

STARTCHAR afii10084
ENCODING 226
SWIDTH 906 0
DWIDTH 12 0
BBX 11 7 1 0
BITMAP
D980
6640
4440
4440
8880
88A0
88C0
ENDCHAR

STARTCHAR afii10085
ENCODING 227
SWIDTH 510 0
DWIDTH 7 0
BBX 7 9 0 -2
BITMAP
44
A2
22
22
14
18
10
A0
40
ENDCHAR

STARTCHAR afii10086
ENCODING 228
SWIDTH 759 0
DWIDTH 10 0
BBX 9 12 1 -2
BITMAP
0300
0480
0400
3700
4C80
4880
8880
8900
9900
7600
9000
6000
ENDCHAR

STARTCHAR afii10087
ENCODING 229
SWIDTH 573 0
DWIDTH 8 0
BBX 8 7 0 0
BITMAP
23
54
18
10
18
2A
C4
ENDCHAR

STARTCHAR afii10088
ENCODING 230
SWIDTH 635 0
DWIDTH 8 0
BBX 7 9 1 -2
BITMAP
C4
44
44
88
88
9A
6C
08
10
ENDCHAR

STARTCHAR afii10089
ENCODING 231
SWIDTH 602 0
DWIDTH 8 0
BBX 7 7 1 0
BITMAP
C4
44
8C
74
08
0A
0C
ENDCHAR

STARTCHAR afii10090
ENCODING 232
SWIDTH 896 0
DWIDTH 12 0
BBX 11 7 1 0
BITMAP
C440
4440
4440
8880
8880
99A0
66C0
ENDCHAR

STARTCHAR afii10091
ENCODING 233
SWIDTH 895 0
DWIDTH 12 0
BBX 11 9 1 -2
BITMAP
C440
4440
4440
8880
8880
99A0
66C0
0080
0100
ENDCHAR

STARTCHAR afii10092
ENCODING 234
SWIDTH 573 0
DWIDTH 6 0
BBX 5 7 1 0
BITMAP
70
90
30
48
88
90
60
ENDCHAR

STARTCHAR afii10093
ENCODING 235
SWIDTH 798 0
DWIDTH 10 0
BBX 9 7 1 0
BITMAP
3300
1100
3100
4900
8A00
9280
6300
ENDCHAR

STARTCHAR afii10094
ENCODING 236
SWIDTH 521 0
DWIDTH 6 0
BBX 5 7 1 0
BITMAP
30
10
30
48
88
90
60
ENDCHAR

STARTCHAR afii10095
ENCODING 237
SWIDTH 448 0
DWIDTH 7 0
BBX 6 7 1 0
BITMAP
38
44
04
18
88
C8
70
ENDCHAR

STARTCHAR afii10096
ENCODING 238
SWIDTH 805 0
DWIDTH 10 0
BBX 9 7 1 0
BITMAP
C700
4880
4880
7080
9100
9100
8E00
ENDCHAR

STARTCHAR afii10097
ENCODING 239
SWIDTH 592 0
DWIDTH 8 0
BBX 8 7 0 0
BITMAP
1F
22
22
1C
24
45
C6
ENDCHAR

STARTCHAR afii61352
ENCODING 240
SWIDTH 1000 0
DWIDTH 13 0
BBX 13 10 0 0
BITMAP
1860
08A0
0880
14B8
14C8
1548
1548
2270
A200
C278
ENDCHAR

STARTCHAR afii10071
ENCODING 241
SWIDTH 462 0
DWIDTH 6 0
BBX 6 10 1 0
BITMAP
24
24
00
38
44
84
F8
80
88
70
ENDCHAR

STARTCHAR afii10099
ENCODING 242
SWIDTH 563 0
DWIDTH 8 0
BBX 6 12 1 -2
BITMAP
20
7C
20
58
64
44
44
88
88
88
08
10
ENDCHAR

STARTCHAR afii10100
ENCODING 243
SWIDTH 510 0
DWIDTH 7 0
BBX 7 10 0 0
BITMAP
04
08
00
7E
22
20
20
40
40
E0
ENDCHAR

STARTCHAR afii10101
ENCODING 244
SWIDTH 469 0
DWIDTH 7 0
BBX 6 7 1 0
BITMAP
38
44
80
E0
88
98
70
ENDCHAR

STARTCHAR afii10102
ENCODING 245
SWIDTH 448 0
DWIDTH 6 0
BBX 6 7 0 0
BITMAP
3C
44
40
30
08
88
F0
ENDCHAR

STARTCHAR afii10103
ENCODING 246
SWIDTH 344 0
DWIDTH 4 0
BBX 3 10 1 0
BITMAP
20
20
00
C0
40
40
40
80
A0
C0
ENDCHAR

STARTCHAR afii10104
ENCODING 247
SWIDTH 344 0
DWIDTH 4 0
BBX 4 10 1 0
BITMAP
90
90
00
C0
40
40
40
80
A0
C0
ENDCHAR

STARTCHAR afii10105
ENCODING 248
SWIDTH 344 0
DWIDTH 4 0
BBX 6 12 -1 -2
BITMAP
04
04
00
18
08
08
08
10
10
10
A0
C0
ENDCHAR

STARTCHAR afii10106
ENCODING 249
SWIDTH 850 0
DWIDTH 10 0
BBX 10 7 0 0
BITMAP
0700
0900
1180
1240
2440
A480
C300
ENDCHAR

STARTCHAR afii10107
ENCODING 250
SWIDTH 845 0
DWIDTH 10 0
BBX 9 7 1 0
BITMAP
C300
4100
4300
7C80
8880
8900
8600
ENDCHAR

STARTCHAR afii10108
ENCODING 251
SWIDTH 635 0
DWIDTH 8 0
BBX 6 10 1 0
BITMAP
20
7C
20
58
64
44
44
88
88
88
ENDCHAR

STARTCHAR afii10109
ENCODING 252
SWIDTH 594 0
DWIDTH 8 0
BBX 7 10 1 0
BITMAP
08
10
00
C6
4A
50
70
90
88
8C
ENDCHAR

STARTCHAR section
ENCODING 253
SWIDTH 489 0
DWIDTH 6 0
BBX 6 12 0 -2
BITMAP
18
24
24
20
50
48
48
28
10
90
90
60
ENDCHAR

STARTCHAR afii10110
ENCODING 254
SWIDTH 510 0
DWIDTH 7 0
BBX 7 12 0 -2
BITMAP
24
18
00
44
A2
22
22
14
18
10
A0
40
ENDCHAR

STARTCHAR afii10193
ENCODING 255
SWIDTH 635 0
DWIDTH 8 0
BBX 7 9 1 -2
BITMAP
C4
44
44
88
88
9A
6C
40
80
ENDCHAR
ENDFONT
